<mxfile host="app.diagrams.net" agent="Mozilla/5.0 (Windows NT 10.0; Win64; x64) AppleWebKit/537.36 (KHTML, like Gecko) Chrome/134.0.0.0 Safari/537.36 Edg/134.0.0.0" version="26.1.3">
  <diagram name="PÃ¡gina-1" id="dvtfvHtJahykOKoWRdrx">
    <mxGraphModel dx="1426" dy="770" grid="1" gridSize="10" guides="1" tooltips="1" connect="1" arrows="1" fold="1" page="1" pageScale="1" pageWidth="827" pageHeight="1169" math="0" shadow="0">
      <root>
        <mxCell id="0" />
        <mxCell id="1" parent="0" />
        <mxCell id="MikgSHJ_18YDb2dn10oz-1" value="PetClinic" style="rounded=1;whiteSpace=wrap;html=1;absoluteArcSize=1;arcSize=140;strokeWidth=2;" vertex="1" parent="1">
          <mxGeometry x="344" y="370" width="140" height="110" as="geometry" />
        </mxCell>
        <mxCell id="MikgSHJ_18YDb2dn10oz-2" value="Boot do App" style="endArrow=none;startArrow=classic;html=1;rounded=0;startFill=0;verticalAlign=bottom;labelPosition=center;verticalLabelPosition=top;align=center;horizontal=0;" edge="1" parent="1">
          <mxGeometry width="50" height="50" relative="1" as="geometry">
            <mxPoint x="390" y="370" as="sourcePoint" />
            <mxPoint x="390" y="240" as="targetPoint" />
          </mxGeometry>
        </mxCell>
        <mxCell id="MikgSHJ_18YDb2dn10oz-3" value="Request" style="endArrow=classic;startArrow=none;html=1;rounded=0;startFill=0;endFill=1;horizontal=0;" edge="1" parent="1">
          <mxGeometry width="50" height="50" relative="1" as="geometry">
            <mxPoint x="430" y="370" as="sourcePoint" />
            <mxPoint x="430" y="240" as="targetPoint" />
          </mxGeometry>
        </mxCell>
        <mxCell id="MikgSHJ_18YDb2dn10oz-4" value="" style="endArrow=none;startArrow=classic;html=1;rounded=0;startFill=0;exitX=1;exitY=0.25;exitDx=0;exitDy=0;entryX=0;entryY=1;entryDx=0;entryDy=0;horizontal=0;labelPosition=center;verticalLabelPosition=middle;align=center;verticalAlign=bottom;fontStyle=0" edge="1" parent="1" target="MikgSHJ_18YDb2dn10oz-8">
          <mxGeometry width="50" height="50" relative="1" as="geometry">
            <mxPoint x="470" y="390.5" as="sourcePoint" />
            <mxPoint x="532.0639999999999" y="313.5" as="targetPoint" />
          </mxGeometry>
        </mxCell>
        <mxCell id="MikgSHJ_18YDb2dn10oz-5" value="" style="endArrow=classic;startArrow=none;html=1;rounded=0;startFill=0;endFill=1;exitX=0.971;exitY=0.636;exitDx=0;exitDy=0;exitPerimeter=0;" edge="1" parent="1">
          <mxGeometry width="50" height="50" relative="1" as="geometry">
            <mxPoint x="480.00000000000006" y="426.96000000000004" as="sourcePoint" />
            <mxPoint x="590" y="310" as="targetPoint" />
          </mxGeometry>
        </mxCell>
        <mxCell id="MikgSHJ_18YDb2dn10oz-6" value="Spring Boot" style="rounded=1;whiteSpace=wrap;html=1;absoluteArcSize=1;arcSize=62;strokeWidth=2;" vertex="1" parent="1">
          <mxGeometry x="344" y="180" width="136" height="60" as="geometry" />
        </mxCell>
        <mxCell id="MikgSHJ_18YDb2dn10oz-7" value="Banco de Dados" style="rounded=1;whiteSpace=wrap;html=1;absoluteArcSize=1;arcSize=62;strokeWidth=2;" vertex="1" parent="1">
          <mxGeometry x="120" y="250" width="136" height="60" as="geometry" />
        </mxCell>
        <mxCell id="MikgSHJ_18YDb2dn10oz-8" value="Spring MVC" style="rounded=1;whiteSpace=wrap;html=1;absoluteArcSize=1;arcSize=62;strokeWidth=2;" vertex="1" parent="1">
          <mxGeometry x="550" y="240" width="136" height="60" as="geometry" />
        </mxCell>
        <mxCell id="MikgSHJ_18YDb2dn10oz-9" value="Spring Data JPA" style="rounded=1;whiteSpace=wrap;html=1;absoluteArcSize=1;arcSize=62;strokeWidth=2;" vertex="1" parent="1">
          <mxGeometry x="580" y="570" width="136" height="60" as="geometry" />
        </mxCell>
        <mxCell id="MikgSHJ_18YDb2dn10oz-10" value="Spring Security" style="rounded=1;whiteSpace=wrap;html=1;absoluteArcSize=1;arcSize=62;strokeWidth=2;" vertex="1" parent="1">
          <mxGeometry x="110" y="550" width="136" height="60" as="geometry" />
        </mxCell>
        <mxCell id="MikgSHJ_18YDb2dn10oz-11" value="Thymeleaf" style="rounded=1;whiteSpace=wrap;html=1;absoluteArcSize=1;arcSize=62;strokeWidth=2;" vertex="1" parent="1">
          <mxGeometry x="346" y="640" width="136" height="60" as="geometry" />
        </mxCell>
        <mxCell id="MikgSHJ_18YDb2dn10oz-12" value="" style="endArrow=classic;startArrow=none;html=1;rounded=0;startFill=0;endFill=1;entryX=0.957;entryY=0.7;entryDx=0;entryDy=0;entryPerimeter=0;exitX=0.25;exitY=0;exitDx=0;exitDy=0;" edge="1" parent="1" source="MikgSHJ_18YDb2dn10oz-9" target="MikgSHJ_18YDb2dn10oz-1">
          <mxGeometry width="50" height="50" relative="1" as="geometry">
            <mxPoint x="600" y="530" as="sourcePoint" />
            <mxPoint x="600" y="400" as="targetPoint" />
          </mxGeometry>
        </mxCell>
        <mxCell id="MikgSHJ_18YDb2dn10oz-13" value="" style="endArrow=none;startArrow=classic;html=1;rounded=0;startFill=0;exitX=0;exitY=0.25;exitDx=0;exitDy=0;" edge="1" parent="1" source="MikgSHJ_18YDb2dn10oz-9">
          <mxGeometry width="50" height="50" relative="1" as="geometry">
            <mxPoint x="550" y="560" as="sourcePoint" />
            <mxPoint x="460" y="470" as="targetPoint" />
          </mxGeometry>
        </mxCell>
        <mxCell id="MikgSHJ_18YDb2dn10oz-14" value="" style="endArrow=classic;startArrow=none;html=1;rounded=0;startFill=0;endFill=1;" edge="1" parent="1">
          <mxGeometry width="50" height="50" relative="1" as="geometry">
            <mxPoint x="434" y="630" as="sourcePoint" />
            <mxPoint x="433.5" y="480" as="targetPoint" />
          </mxGeometry>
        </mxCell>
        <mxCell id="MikgSHJ_18YDb2dn10oz-15" value="" style="endArrow=none;startArrow=classic;html=1;rounded=0;startFill=0;" edge="1" parent="1">
          <mxGeometry width="50" height="50" relative="1" as="geometry">
            <mxPoint x="394" y="630" as="sourcePoint" />
            <mxPoint x="393.5" y="480" as="targetPoint" />
          </mxGeometry>
        </mxCell>
        <mxCell id="MikgSHJ_18YDb2dn10oz-16" value="" style="endArrow=none;startArrow=classic;html=1;rounded=0;startFill=0;" edge="1" parent="1">
          <mxGeometry width="50" height="50" relative="1" as="geometry">
            <mxPoint x="210" y="540" as="sourcePoint" />
            <mxPoint x="340" y="440" as="targetPoint" />
          </mxGeometry>
        </mxCell>
        <mxCell id="MikgSHJ_18YDb2dn10oz-17" value="" style="endArrow=classic;startArrow=none;html=1;rounded=0;startFill=0;endFill=1;entryX=0.1;entryY=0.891;entryDx=0;entryDy=0;entryPerimeter=0;exitX=0.956;exitY=0.167;exitDx=0;exitDy=0;exitPerimeter=0;" edge="1" parent="1" source="MikgSHJ_18YDb2dn10oz-10" target="MikgSHJ_18YDb2dn10oz-1">
          <mxGeometry width="50" height="50" relative="1" as="geometry">
            <mxPoint x="284" y="523" as="sourcePoint" />
            <mxPoint x="178" y="420" as="targetPoint" />
          </mxGeometry>
        </mxCell>
        <mxCell id="MikgSHJ_18YDb2dn10oz-18" value="" style="endArrow=none;startArrow=classic;html=1;rounded=0;startFill=0;" edge="1" parent="1">
          <mxGeometry width="50" height="50" relative="1" as="geometry">
            <mxPoint x="340" y="410" as="sourcePoint" />
            <mxPoint x="220" y="320" as="targetPoint" />
          </mxGeometry>
        </mxCell>
        <mxCell id="MikgSHJ_18YDb2dn10oz-19" value="" style="endArrow=classic;startArrow=none;html=1;rounded=0;startFill=0;endFill=1;exitX=0.107;exitY=0.127;exitDx=0;exitDy=0;exitPerimeter=0;entryX=1;entryY=0.75;entryDx=0;entryDy=0;" edge="1" parent="1" source="MikgSHJ_18YDb2dn10oz-1" target="MikgSHJ_18YDb2dn10oz-7">
          <mxGeometry width="50" height="50" relative="1" as="geometry">
            <mxPoint x="236.00000000000006" y="406.96000000000004" as="sourcePoint" />
            <mxPoint x="346" y="290" as="targetPoint" />
          </mxGeometry>
        </mxCell>
      </root>
    </mxGraphModel>
  </diagram>
</mxfile>
